<svg xmlns="http://www.w3.org/2000/svg" version="1.1" xmlns:xlink="http://www.w3.org/1999/xlink" viewBox="0 0 200 200"><rect width="200" height="200" fill="url('#gradient')"></rect><defs><linearGradient id="gradient" gradientTransform="rotate(45 0.5 0.5)"><stop offset="0%" stop-color="#4a5e75"></stop><stop offset="100%" stop-color="#2a7fb9"></stop></linearGradient></defs><g><g fill="#ffffff" transform="matrix(7.569609856262834,0,0,7.569609856262834,1.8939864752473738,153.78645002141872)" stroke="#000000" stroke-width="0.2"><path d="M6.69-4.82L4.50-4.82L4.50 0L1.07 0L1.07-14.22L6.75-14.22Q8.38-14.22 9.63-13.62Q10.89-13.02 11.58-11.91Q12.27-10.80 12.27-9.39L12.27-9.39Q12.27-7.31 10.78-6.07Q9.29-4.82 6.69-4.82L6.69-4.82ZM4.50-11.57L4.50-7.47L6.75-7.47Q7.74-7.47 8.27-7.97Q8.79-8.47 8.79-9.38L8.79-9.38Q8.79-10.37 8.25-10.97Q7.71-11.56 6.79-11.57L6.79-11.57L4.50-11.57ZM21.43-3.78L21.43-3.78Q21.43-4.53 20.89-4.95Q20.36-5.37 19.02-5.82Q17.69-6.27 16.84-6.69L16.84-6.69Q14.07-8.05 14.07-10.42L14.07-10.42Q14.07-11.60 14.76-12.50Q15.45-13.41 16.71-13.91Q17.97-14.41 19.54-14.41L19.54-14.41Q21.07-14.41 22.29-13.87Q23.51-13.32 24.18-12.31Q24.85-11.30 24.85-10L24.85-10L21.44-10Q21.44-10.87 20.90-11.35Q20.37-11.83 19.46-11.83L19.46-11.83Q18.54-11.83 18.01-11.42Q17.48-11.02 17.48-10.39L17.48-10.39Q17.48-9.84 18.07-9.40Q18.65-8.96 20.13-8.48Q21.60-8.01 22.55-7.46L22.55-7.46Q24.85-6.13 24.85-3.80L24.85-3.80Q24.85-1.93 23.45-0.87Q22.04 0.20 19.59 0.20L19.59 0.20Q17.86 0.20 16.46-0.42Q15.06-1.04 14.35-2.12Q13.64-3.20 13.64-4.61L13.64-4.61L17.08-4.61Q17.08-3.47 17.67-2.92Q18.26-2.38 19.59-2.38L19.59-2.38Q20.44-2.38 20.93-2.75Q21.43-3.12 21.43-3.78Z"></path></g></g></svg>